<svg width="71" height="32" viewBox="0 0 71 32" fill="none" xmlns="http://www.w3.org/2000/svg">
<path d="M35.8462 30.2985C48.4932 16.7972 51.4092 15.5589 64.0562 2.0576" stroke="#133131" stroke-width="3" stroke-linecap="round"/>
<path d="M7.19892 1.78007L35.7724 30.2199" stroke="#133131" stroke-width="3" stroke-linecap="round"/>
<path d="M35.9136 15.3579L47.5475 4.8034" stroke="#133131" stroke-width="3" stroke-linecap="round"/>
<path d="M35.8008 15.3579L24.1668 4.8034" stroke="#133131" stroke-width="3" stroke-linecap="round"/>
<line x1="1.5" y1="-1.5" x2="8.98657" y2="-1.5" transform="matrix(0.689681 0.724113 -0.689681 0.724113 62.2676 2.07129)" stroke="#133131" stroke-width="3" stroke-linecap="round"/>
<line x1="1.5" y1="-1.5" x2="8.98657" y2="-1.5" transform="matrix(0.689681 -0.724113 0.689681 0.724113 1.5 9.18994)" stroke="#133131" stroke-width="3" stroke-linecap="round"/>
<line x1="1.5" y1="-1.5" x2="8.98657" y2="-1.5" transform="matrix(0.689681 -0.724113 0.689681 0.724113 5.56616 14.6455)" stroke="#133131" stroke-width="3" stroke-linecap="round"/>
<line x1="1.5" y1="-1.5" x2="8.98657" y2="-1.5" transform="matrix(0.689681 -0.724113 0.689681 0.724113 10.3101 19.3887)" stroke="#133131" stroke-width="3" stroke-linecap="round"/>
<line x1="1.5" y1="-1.5" x2="8.98657" y2="-1.5" transform="matrix(0.689681 0.724113 -0.689681 0.724113 57.5237 7.05176)" stroke="#133131" stroke-width="3" stroke-linecap="round"/>
<line x1="1.5" y1="-1.5" x2="8.98657" y2="-1.5" transform="matrix(0.689681 0.724113 -0.689681 0.724113 52.7798 11.7954)" stroke="#133131" stroke-width="3" stroke-linecap="round"/>
</svg>
