<svg width="48" height="49" viewBox="0 0 48 49" fill="none" xmlns="http://www.w3.org/2000/svg">
<path fill-rule="evenodd" clip-rule="evenodd" d="M0 24.0449C0 10.7901 10.7452 0.0449219 24 0.0449219C37.2548 0.0449219 48 10.7901 48 24.0449C48 37.2997 37.2548 48.0449 24 48.0449C10.7452 48.0449 0 37.2997 0 24.0449ZM25.2555 31.921C25.2555 31.921 25.7175 31.8706 25.9541 31.6211C26.1707 31.3925 26.1632 30.9611 26.1632 30.9611C26.1632 30.9611 26.1344 28.9467 27.0873 28.6492C28.0264 28.3567 29.2321 30.5973 30.5118 31.4589C31.4784 32.1103 32.2121 31.9677 32.2121 31.9677L35.6316 31.921C35.6316 31.921 37.4196 31.8128 36.5719 30.4326C36.5018 30.3195 36.0773 29.4113 34.0302 27.5455C31.8853 25.5926 32.1733 25.9084 34.7551 22.5298C36.3278 20.4723 36.9563 19.2162 36.7597 18.6792C36.5732 18.1654 35.4162 18.3018 35.4162 18.3018L31.5673 18.3252C31.5673 18.3252 31.2818 18.2871 31.0702 18.4112C30.8636 18.5329 30.7296 18.8168 30.7296 18.8168C30.7296 18.8168 30.1211 20.4084 29.3085 21.7628C27.5944 24.6192 26.9095 24.7703 26.629 24.5934C25.9767 24.1792 26.1394 22.9317 26.1394 22.0455C26.1394 19.2765 26.5677 18.1224 25.3068 17.8237C24.8886 17.7242 24.5806 17.659 23.51 17.648C22.1365 17.6345 20.9745 17.6529 20.3159 17.9688C19.8777 18.1789 19.5396 18.6484 19.7462 18.6755C20.0004 18.7086 20.5764 18.8279 20.8819 19.2359C21.2763 19.7632 21.2625 20.9455 21.2625 20.9455C21.2625 20.9455 21.4892 24.205 20.7329 24.6093C20.2145 24.8871 19.5033 24.3205 17.9745 21.7284C17.192 20.4011 16.601 18.9336 16.601 18.9336C16.601 18.9336 16.487 18.6595 16.2829 18.512C16.0363 18.3338 15.6919 18.2785 15.6919 18.2785L12.0346 18.3018C12.0346 18.3018 11.4849 18.3166 11.2833 18.5513C11.1043 18.759 11.2695 19.1904 11.2695 19.1904C11.2695 19.1904 14.1331 25.7671 17.376 29.0819C20.3497 32.1201 23.7254 31.921 23.7254 31.921H25.2555Z" fill="#FFCC86"/>
</svg>
