<svg width="48" height="49" viewBox="0 0 48 49" fill="none" xmlns="http://www.w3.org/2000/svg">
<path fill-rule="evenodd" clip-rule="evenodd" d="M48 24.0449C48 37.2997 37.2548 48.0449 24 48.0449C10.7452 48.0449 0 37.2997 0 24.0449C0 10.7901 10.7452 0.0449219 24 0.0449219C37.2548 0.0449219 48 10.7901 48 24.0449ZM16.0715 21.8464C13.6673 22.8961 11.1971 23.9747 8.93825 25.2189C7.75877 26.0825 9.32638 26.6934 10.7971 27.2664C11.0309 27.3575 11.2622 27.4476 11.4797 27.5376C11.6607 27.5933 11.8447 27.6519 12.0312 27.7113C13.6669 28.2324 15.4907 28.8135 17.0787 27.9394C19.6873 26.4409 22.149 24.7085 24.6089 22.9774C25.4148 22.4102 26.2205 21.8432 27.0311 21.2846C27.0691 21.2603 27.1119 21.2325 27.1588 21.2022C27.8493 20.7545 29.4024 19.7478 28.8279 21.135C27.4695 22.6206 26.0144 23.9356 24.5515 25.2579C23.5655 26.149 22.5759 27.0434 21.6099 27.9954C20.7686 28.679 19.8949 30.0537 20.837 31.011C23.0069 32.53 25.2107 34.0122 27.4132 35.4936C28.1299 35.9756 28.8466 36.4576 29.5618 36.9408C30.774 37.9086 32.6685 37.1257 32.935 35.6134C33.0535 34.9177 33.1725 34.2221 33.2915 33.5264C33.9491 29.6817 34.6069 25.8356 35.188 21.9784C35.267 21.3733 35.3565 20.7683 35.4461 20.163C35.6632 18.6959 35.8806 17.227 35.9485 15.752C35.7735 14.28 33.9887 14.6037 32.9955 14.9347C27.8903 16.8773 22.8361 18.9639 17.8019 21.0873C17.2316 21.3399 16.6535 21.5923 16.0715 21.8464Z" fill="#FFCC86"/>
</svg>
